<svg id="download-svgrepo-com" xmlns="http://www.w3.org/2000/svg" width="38.357" height="38.357" viewBox="0 0 38.357 38.357">
  <path id="Path_155" data-name="Path 155" d="M19.179,0A19.179,19.179,0,1,0,38.357,19.179,19.2,19.2,0,0,0,19.179,0Zm0,34.87A15.692,15.692,0,1,1,34.87,19.179,15.709,15.709,0,0,1,19.179,34.87Z" fill="#fff"/>
  <path id="Path_156" data-name="Path 156" d="M106.552,67.8l-3.681,3.681V61.744a1.744,1.744,0,0,0-3.487,0v9.739L95.7,67.8a1.744,1.744,0,0,0-2.466,2.466l6.657,6.657a1.743,1.743,0,0,0,2.466,0l6.657-6.657a1.744,1.744,0,1,0-2.466-2.466Z" transform="translate(-81.948 -53.026)" fill="#fff"/>
  <path id="Path_157" data-name="Path 157" d="M128.718,240h-6.974a1.744,1.744,0,1,0,0,3.487h6.974a1.744,1.744,0,1,0,0-3.487Z" transform="translate(-106.052 -212.104)" fill="#fff"/>
</svg>
