<svg xmlns="http://www.w3.org/2000/svg" width="141.547" height="173.861" viewBox="0 0 141.547 173.861">
  <g id="pdf-file-svgrepo-com" transform="translate(-44.806)">
    <path id="Path_158" data-name="Path 158" d="M127,302.021c0-2.887-2-4.609-5.539-4.609a12.267,12.267,0,0,0-2.932.279v9.264a11.111,11.111,0,0,0,2.376.182C124.677,307.136,127,305.233,127,302.021Z" transform="translate(-47.141 -190.164)" fill="#fff"/>
    <path id="Path_159" data-name="Path 159" d="M197.015,297.681a14.624,14.624,0,0,0-3.211.278v20.517a12.831,12.831,0,0,0,2.467.142c6.422.045,10.61-3.49,10.61-10.98C206.927,301.125,203.11,297.681,197.015,297.681Z" transform="translate(-95.269 -190.336)" fill="#fff"/>
    <path id="Path_160" data-name="Path 160" d="M142.4,0H72.574a18.531,18.531,0,0,0-18.5,18.5V86.93H52.263a7.456,7.456,0,0,0-7.457,7.457v45.221a7.455,7.455,0,0,0,7.457,7.456H54.07v8.292a18.524,18.524,0,0,0,18.5,18.5h95.28a18.524,18.524,0,0,0,18.5-18.5V43.795ZM64.368,102.548a58.449,58.449,0,0,1,9.584-.648c4.373,0,7.49.835,9.585,2.512a9.167,9.167,0,0,1,3.351,7.258A10.024,10.024,0,0,1,84,119.115c-2.421,2.279-6,3.3-10.19,3.3a18.367,18.367,0,0,1-2.421-.137v11.213H64.368Zm103.486,59.981H72.574a7.178,7.178,0,0,1-7.167-7.172v-8.292h88.82a7.455,7.455,0,0,0,7.457-7.456V94.387a7.455,7.455,0,0,0-7.457-7.457H65.408V18.5a7.176,7.176,0,0,1,7.167-7.161l65.59-.069V35.519A12.837,12.837,0,0,0,151,48.352l23.75-.068.267,107.072A7.173,7.173,0,0,1,167.854,162.529ZM91.417,133.351v-30.8A63.868,63.868,0,0,1,101,101.9c5.956,0,9.818,1.068,12.844,3.347,3.257,2.421,5.3,6.28,5.3,11.821,0,6-2.185,10.145-5.212,12.7-3.3,2.745-8.328,4.047-14.469,4.047A61.389,61.389,0,0,1,91.417,133.351ZM142.2,115.114v5.768H130.938v12.611H123.82v-31.36h19.17v5.814H130.938v7.167Z" fill="#fff"/>
  </g>
</svg>
