<?xml version="1.0" encoding="UTF-8"?>
<svg id="Layer_1" data-name="Layer 1" xmlns="http://www.w3.org/2000/svg" viewBox="0 0 1400 1400">
  <defs>
    <style>
      .cls-1 {
        fill: #fff;
      }

      .cls-2 {
        stroke: #1a1a1a;
        stroke-miterlimit: 10;
        stroke-width: 4.48px;
      }

      .cls-2, .cls-3 {
        fill: red;
      }
    </style>
  </defs>
  <g>
    <polygon class="cls-3" points="702.65 856.38 444.26 856.38 1105.91 314.74 702.65 856.38"/>
    <polygon class="cls-3" points="969.34 976.06 735.16 1085.26 1105.91 314.74 969.34 976.06"/>
    <polygon class="cls-3" points="535.32 675.89 294.09 583.29 1105.91 314.74 535.32 675.89"/>
  </g>
  <g>
    <circle class="cls-2" cx="531.06" cy="495.32" r="77.17"/>
    <path class="cls-1" d="M555.04,506.51c0,10.16-7.84,19.46-24.98,19.46-8.44,0-17.14-2.33-22.99-6.46l5.43-10.68c4.56,3.44,10.94,5.43,17.22,5.43,6.98,0,11.28-2.84,11.28-7.75,0-4.56-3.36-7.41-11.28-7.41h-6.37v-9.22l12.4-14.04h-25.67v-11.2h42.2v9.04l-13.61,15.5c10.85,1.72,16.36,8.44,16.36,17.31Z"/>
  </g>
</svg>