<?xml version="1.0" encoding="UTF-8"?>
<svg id="Layer_1" data-name="Layer 1" xmlns="http://www.w3.org/2000/svg" viewBox="0 0 842.87 808.09">
  <defs>
    <style>
      .cls-1 {
        fill: #fff;
      }

      .cls-2 {
        stroke: #1a1a1a;
        stroke-miterlimit: 10;
        stroke-width: 4.48px;
      }

      .cls-2, .cls-3 {
        fill: red;
      }
    </style>
  </defs>
  <g>
    <polygon class="cls-3" points="424.08 560.43 165.69 560.43 827.34 18.78 424.08 560.43"/>
    <polygon class="cls-3" points="690.77 680.1 456.59 789.3 827.34 18.78 690.77 680.1"/>
    <polygon class="cls-3" points="256.76 379.94 15.53 287.34 827.34 18.78 256.76 379.94"/>
  </g>
  <g>
    <circle class="cls-2" cx="252.49" cy="199.36" r="77.17"/>
    <path class="cls-1" d="M276.48,210.56c0,10.16-7.84,19.46-24.98,19.46-8.44,0-17.14-2.33-22.99-6.46l5.43-10.68c4.56,3.44,10.94,5.43,17.22,5.43,6.98,0,11.28-2.84,11.28-7.75,0-4.56-3.36-7.41-11.28-7.41h-6.37v-9.22l12.4-14.04h-25.67v-11.2h42.2v9.04l-13.61,15.5c10.85,1.72,16.36,8.44,16.36,17.31Z"/>
  </g>
</svg>