<?xml version="1.0" encoding="UTF-8"?>
<svg id="Layer_1" data-name="Layer 1" xmlns="http://www.w3.org/2000/svg" viewBox="0 0 1400 629.93">
  <defs>
    <style>
      .cls-1 {
        fill: #fff;
      }

      .cls-2 {
        fill: #f2f2f2;
      }

      .cls-3 {
        fill: red;
      }
    </style>
  </defs>
  <g>
    <path class="cls-2" d="M0,186.56V41.09H23.15V186.56H0Z"/>
    <path class="cls-2" d="M106.33,186.56V41.09h51.63c15.71,0,28.79,3.25,39.23,9.73,10.45,6.49,18.34,15.23,23.66,26.22,5.33,11,7.99,23.19,7.99,36.57,0,14.75-2.9,27.59-8.71,38.52-5.81,10.93-14.03,19.4-24.69,25.4-10.65,6.01-23.15,9.01-37.49,9.01h-51.63Zm99.16-72.94c0-10.24-1.88-19.26-5.63-27.04-3.76-7.79-9.15-13.93-16.19-18.44-7.04-4.51-15.61-6.76-25.71-6.76h-28.48v104.9h28.48c10.24,0,18.88-2.32,25.92-6.97,7.03-4.64,12.4-10.93,16.08-18.85,3.69-7.92,5.53-16.87,5.53-26.84Z"/>
    <path class="cls-2" d="M298.71,188.6c-8.47,0-16.05-1.46-22.74-4.37-6.69-2.91-12.5-6.92-17.41-12-4.92-5.08-8.71-10.91-11.37-17.49-2.66-6.57-3.99-13.52-3.99-20.84,0-10.13,2.32-19.38,6.97-27.76,4.64-8.37,11.17-15.06,19.57-20.06,8.4-5,18.06-7.5,28.99-7.5s21.07,2.54,29.19,7.61c8.12,5.07,14.44,11.73,18.95,19.98,4.51,8.25,6.76,17.11,6.76,26.57,0,1.63-.07,3.15-.2,4.57-.14,1.42-.28,2.54-.41,3.35h-86.05c.68,6.34,2.53,11.83,5.53,16.48,3,4.65,6.9,8.29,11.68,10.92,4.78,2.63,9.83,3.94,15.16,3.94,6.15,0,11.92-1.5,17.31-4.51,5.39-3,9.05-6.97,10.96-11.88l19.26,5.53c-2.32,5.19-5.87,9.87-10.65,14.03-4.78,4.17-10.35,7.45-16.7,9.83-6.35,2.39-13.29,3.59-20.8,3.59Zm-32.17-62.69h64.74c-.55-6.16-2.29-11.51-5.22-16.07-2.94-4.55-6.8-8.13-11.58-10.75-4.78-2.61-9.97-3.92-15.57-3.92s-10.96,1.31-15.67,3.92c-4.71,2.61-8.57,6.19-11.58,10.75-3.01,4.55-4.71,9.91-5.12,16.07Z"/>
    <path class="cls-2" d="M372.26,36.99h22.54v119.2c0,5.34,.82,8.8,2.46,10.38s3.69,2.36,6.15,2.36c2.59,0,5.15-.34,7.68-1.02,2.53-.68,4.61-1.3,6.25-1.84l3.28,17.62c-3.28,1.37-7.17,2.53-11.68,3.48-4.51,.95-8.54,1.43-12.09,1.43-7.79,0-13.83-2.16-18.13-6.47-4.3-4.31-6.45-10.31-6.45-17.98V36.99Z"/>
    <path class="cls-2" d="M433.72,61.79v-24.79h22.54v24.79h-22.54Zm0,124.77V79.4h22.54v107.15h-22.54Z"/>
    <path class="cls-2" d="M513.01,186.56l-40.57-106.33h23.36l30.32,85.59,30.73-85.59h21.51l-40.57,106.33h-24.79Z"/>
    <path class="cls-2" d="M639.63,188.6c-8.47,0-16.05-1.46-22.74-4.37-6.69-2.91-12.5-6.92-17.41-12-4.92-5.08-8.71-10.91-11.37-17.49-2.66-6.57-3.99-13.52-3.99-20.84,0-10.13,2.32-19.38,6.97-27.76,4.64-8.37,11.17-15.06,19.57-20.06,8.4-5,18.06-7.5,28.99-7.5s21.07,2.54,29.19,7.61c8.12,5.07,14.44,11.73,18.95,19.98,4.51,8.25,6.76,17.11,6.76,26.57,0,1.63-.07,3.15-.2,4.57-.14,1.42-.28,2.54-.41,3.35h-86.05c.68,6.34,2.53,11.83,5.53,16.48,3,4.65,6.9,8.29,11.68,10.92,4.78,2.63,9.83,3.94,15.16,3.94,6.15,0,11.92-1.5,17.31-4.51,5.39-3,9.05-6.97,10.96-11.88l19.26,5.53c-2.32,5.19-5.87,9.87-10.65,14.03-4.78,4.17-10.35,7.45-16.7,9.83-6.35,2.39-13.29,3.59-20.8,3.59Zm-32.17-62.69h64.74c-.55-6.16-2.29-11.51-5.22-16.07-2.94-4.55-6.8-8.13-11.58-10.75-4.78-2.61-9.97-3.92-15.57-3.92s-10.96,1.31-15.67,3.92c-4.71,2.61-8.57,6.19-11.58,10.75-3.01,4.55-4.71,9.91-5.12,16.07Z"/>
    <path class="cls-2" d="M773,98.87c-8.61,.14-16.29,2.12-23.05,5.94-6.76,3.83-11.58,9.22-14.44,16.19v65.56h-22.54V80.22h20.69v22.95c3.82-7.24,8.74-13.08,14.75-17.52,6.01-4.44,12.29-6.86,18.85-7.27h3.59c.89,0,1.6,.07,2.15,.2v20.28Z"/>
    <path class="cls-2" d="M827.91,155.51c0-6.77,1.95-12.69,5.84-17.76,3.89-5.07,9.29-9,16.19-11.77,6.9-2.77,14.78-4.16,23.66-4.16,4.78,0,9.63,.38,14.55,1.13,4.92,.75,9.35,1.81,13.32,3.18v-6.72c0-7.4-2.25-13.18-6.76-17.35-4.51-4.17-11-6.25-19.46-6.25-6.01,0-11.68,1.02-17,3.07-5.33,2.05-11,5.12-17.01,9.22l-7.38-15.37c6.83-4.64,13.86-8.16,21.1-10.55,7.24-2.39,14.82-3.59,22.74-3.59,14.34,0,25.61,3.75,33.81,11.24,8.19,7.5,12.29,18.13,12.29,31.9v39.5c0,2.57,.48,4.39,1.43,5.47,.95,1.08,2.53,1.69,4.71,1.82v18.03c-2.05,.41-3.86,.68-5.43,.82-1.57,.14-2.9,.27-3.99,.41-4.92-.14-8.61-1.36-11.06-3.69-2.46-2.32-3.89-5.05-4.3-8.19l-.61-6.15c-4.51,6.01-10.42,10.65-17.72,13.93-7.31,3.28-14.65,4.92-22.02,4.92s-13.45-1.46-19.05-4.36c-5.6-2.91-9.97-6.87-13.11-11.88-3.14-5.01-4.71-10.63-4.71-16.85Zm68.22,6.62c1.5-1.88,2.77-3.69,3.79-5.44,1.02-1.75,1.54-3.36,1.54-4.84v-11.89c-3.83-1.48-7.86-2.59-12.09-3.33-4.24-.74-8.33-1.11-12.29-1.11-8.33,0-15.06,1.61-20.18,4.84-5.12,3.22-7.68,7.66-7.68,13.3,0,3.09,.85,6.01,2.56,8.76,1.71,2.75,4.16,5.04,7.38,6.85,3.21,1.81,7.13,2.72,11.78,2.72,5.05,0,9.83-.97,14.34-2.92,4.51-1.95,8.13-4.26,10.86-6.95Z"/>
    <path class="cls-3" d="M271.56,431.72h-44.1v-95.35c0-13.62-2.36-23.57-7.08-29.84-4.72-6.27-11.25-9.41-19.58-9.41-8.78,0-17,3.3-24.68,9.89-7.68,6.6-13.16,15.08-16.45,25.46v99.25h-44.43v-95.35c0-13.62-2.3-23.57-6.91-29.84-4.61-6.27-11.08-9.41-19.42-9.41s-16.78,3.21-24.68,9.64c-7.9,6.43-13.49,14.89-16.78,25.39v99.57H3.68v-170.8H43.5v31.86c6.58-11.06,15.41-19.58,26.49-25.54,11.08-5.97,23.64-8.95,37.68-8.95s25.39,3.47,33.4,10.41c8.01,6.94,13.11,15.51,15.3,25.7,7.02-11.71,15.96-20.66,26.82-26.84,10.86-6.18,23.2-9.28,37.02-9.28,10.53,0,19.14,1.9,25.83,5.7,6.69,3.79,11.9,8.89,15.63,15.29,3.73,6.4,6.3,13.61,7.73,21.64,1.42,8.03,2.14,16.05,2.14,24.07v106.73Z"/>
    <path class="cls-3" d="M390.03,435.02c-13.82,0-26.33-2.34-37.52-6.99-11.19-4.66-20.73-11.07-28.63-19.2-7.9-8.14-13.93-17.41-18.1-27.82-4.17-10.41-6.25-21.59-6.25-33.52,0-16.05,3.67-30.86,11.02-44.43,7.35-13.56,17.77-24.41,31.26-32.55,13.49-8.13,29.67-12.21,48.54-12.21s34.66,4.08,48.05,12.22c13.38,8.15,23.69,18.85,30.93,32.11,7.24,13.26,10.86,27.7,10.86,43.35,0,2.83-.11,5.49-.33,7.99-.22,2.5-.44,4.62-.66,6.35h-132.95c.66,9.01,3.13,16.68,7.4,23,4.28,6.32,9.76,11.2,16.45,14.63,6.69,3.43,13.76,5.15,21.23,5.15,8.99,0,17.39-2.14,25.17-6.42,7.79-4.28,13.11-10.04,15.96-17.28l37.52,10.53c-3.95,8.78-9.76,16.57-17.44,23.37-7.68,6.8-16.78,12.12-27.31,15.96-10.53,3.84-22.27,5.76-35.21,5.76Zm-45.08-102.35h90.17c-.88-8.58-3.35-16.03-7.4-22.35-4.06-6.33-9.38-11.26-15.96-14.79-6.58-3.54-13.93-5.31-22.05-5.31s-15.09,1.77-21.56,5.31c-6.47,3.54-11.74,8.47-15.8,14.79-4.06,6.32-6.53,13.78-7.4,22.35Z"/>
    <path class="cls-3" d="M570.7,435.02c-14.7,0-28.79-2.42-42.29-7.24-13.49-4.82-24.96-11.96-34.39-21.39l16.13-28.63c10.09,8.34,20.07,14.48,29.95,18.43,9.87,3.95,19.52,5.92,28.96,5.92,8.56,0,15.41-1.48,20.57-4.44,5.15-2.96,7.73-7.4,7.73-13.33,0-4.33-1.43-7.63-4.28-9.9-2.85-2.27-6.97-4.23-12.34-5.85-5.38-1.63-11.9-3.52-19.58-5.68-12.73-3.9-23.31-7.85-31.76-11.86-8.45-4-14.87-8.99-19.25-14.94-4.39-5.95-6.58-13.59-6.58-22.9,0-11.26,2.91-20.95,8.72-29.07,5.81-8.12,13.93-14.46,24.35-19.01,10.42-4.55,22.65-6.82,36.69-6.82,12.28,0,23.91,1.92,34.88,5.76,10.97,3.84,20.95,10.04,29.95,18.59l-18.1,28.3c-8.56-7.02-16.78-12.12-24.68-15.3-7.9-3.18-15.91-4.77-24.02-4.77-4.61,0-8.94,.54-13,1.62-4.06,1.08-7.35,2.86-9.87,5.35-2.52,2.48-3.78,5.99-3.78,10.53,0,3.89,1.15,7.02,3.46,9.39,2.3,2.38,5.81,4.42,10.53,6.15,4.72,1.73,10.47,3.67,17.28,5.83,13.82,3.89,25.45,7.83,34.88,11.83,9.43,4,16.62,9.01,21.56,15.06,4.94,6.05,7.4,14.25,7.4,24.61,0,16.84-6.25,30.02-18.76,39.52-12.51,9.5-29.29,14.25-50.35,14.25Z"/>
    <path class="cls-3" d="M733.27,435.02c-14.7,0-28.79-2.42-42.29-7.24-13.49-4.82-24.96-11.96-34.39-21.39l16.13-28.63c10.09,8.34,20.07,14.48,29.95,18.43,9.87,3.95,19.52,5.92,28.96,5.92,8.56,0,15.41-1.48,20.57-4.44,5.15-2.96,7.73-7.4,7.73-13.33,0-4.33-1.43-7.63-4.28-9.9-2.85-2.27-6.97-4.23-12.34-5.85-5.38-1.63-11.9-3.52-19.58-5.68-12.73-3.9-23.31-7.85-31.76-11.86-8.45-4-14.87-8.99-19.25-14.94-4.39-5.95-6.58-13.59-6.58-22.9,0-11.26,2.91-20.95,8.72-29.07,5.81-8.12,13.93-14.46,24.35-19.01,10.42-4.55,22.65-6.82,36.69-6.82,12.28,0,23.91,1.92,34.88,5.76,10.97,3.84,20.95,10.04,29.95,18.59l-18.1,28.3c-8.56-7.02-16.78-12.12-24.68-15.3-7.9-3.18-15.91-4.77-24.02-4.77-4.61,0-8.94,.54-13,1.62-4.06,1.08-7.35,2.86-9.87,5.35-2.52,2.48-3.78,5.99-3.78,10.53,0,3.89,1.15,7.02,3.46,9.39,2.3,2.38,5.81,4.42,10.53,6.15,4.72,1.73,10.47,3.67,17.28,5.83,13.82,3.89,25.45,7.83,34.88,11.83,9.43,4,16.62,9.01,21.56,15.06,4.94,6.05,7.4,14.25,7.4,24.61,0,16.84-6.25,30.02-18.76,39.52-12.51,9.5-29.29,14.25-50.35,14.25Z"/>
    <path class="cls-3" d="M820.48,381.36c0-11.06,3.13-20.7,9.38-28.94,6.25-8.24,14.92-14.69,26-19.34,11.08-4.66,23.97-6.99,38.67-6.99,7.24,0,14.59,.55,22.05,1.65,7.46,1.1,13.93,2.85,19.42,5.27v-9.5c0-10.55-3.18-18.74-9.54-24.56-6.37-5.82-15.91-8.73-28.63-8.73-9.66,0-18.76,1.65-27.31,4.94-8.56,3.29-17.55,8.01-26.99,14.15l-13.82-28.63c11.19-7.68,22.76-13.33,34.72-16.95,11.96-3.62,24.52-5.43,37.68-5.43,24.57,0,43.71,6,57.43,18.01,13.71,12,20.57,29.36,20.57,52.07v54.18c0,4.55,.82,7.79,2.47,9.73,1.65,1.95,4.33,3.14,8.06,3.57v35.87c-3.95,.66-7.52,1.2-10.69,1.65-3.18,.44-5.87,.54-8.06,.33-8.78,0-15.42-1.92-19.91-5.76-4.5-3.84-7.19-8.61-8.06-14.32l-.99-8.89c-7.68,9.66-17.11,17.11-28.3,22.38-11.19,5.27-22.6,7.9-34.23,7.9s-21.67-2.39-30.77-7.15c-9.11-4.77-16.24-11.21-21.39-19.34-5.16-8.13-7.73-17.18-7.73-27.15Zm107.28,8.25c2.41-2.14,4.39-4.6,5.92-7.38,1.53-2.78,2.3-5.14,2.3-7.06v-17c-5.27-2.14-10.97-3.8-17.11-4.97-6.14-1.18-11.96-1.77-17.44-1.77-11.41,0-20.79,2.41-28.14,7.22-7.35,4.81-11.02,11.18-11.02,19.1,0,4.28,1.2,8.4,3.62,12.36,2.41,3.96,5.87,7.11,10.37,9.47,4.49,2.35,10.04,3.53,16.62,3.53s13.05-1.28,19.42-3.85c6.36-2.57,11.52-5.77,15.47-9.63Z"/>
    <path class="cls-3" d="M1088.68,435.02c-11.41,0-21.88-2.31-31.43-6.92-9.54-4.62-17.72-10.94-24.52-18.96-6.8-8.02-12.07-17.31-15.8-27.86-3.73-10.55-5.59-21.76-5.59-33.63,0-12.53,1.92-24.17,5.76-34.94,3.84-10.77,9.32-20.27,16.45-28.52,7.13-8.24,15.58-14.62,25.34-19.12,9.76-4.5,20.57-6.76,32.42-6.76,13.38,0,25.12,2.96,35.21,8.89,10.09,5.92,18.43,13.93,25.01,24.02v-30.28h38.5v163.11c0,17-4.17,31.55-12.51,43.64-8.34,12.09-19.64,21.35-33.9,27.79-14.26,6.42-30.72,9.64-49.36,9.64s-34.45-3.13-47.39-9.38c-12.95-6.25-24.02-15.09-33.24-26.49l24.02-23.36c6.58,8.11,14.86,14.48,24.85,19.09,9.98,4.61,20.57,6.91,31.76,6.91,9.21,0,17.77-1.6,25.67-4.8,7.9-3.2,14.15-8.16,18.76-14.87,4.61-6.72,6.91-15.51,6.91-26.4v-21.72c-5.49,9.87-13.44,17.5-23.86,22.87-10.42,5.37-21.45,8.06-33.07,8.06Zm14.81-35.21c5.04,0,9.71-.77,13.99-2.31,4.28-1.54,8.28-3.63,12.01-6.27,3.73-2.64,7.02-5.78,9.87-9.41,2.85-3.63,4.94-7.42,6.25-11.39v-40.93c-2.42-6.82-5.98-12.77-10.69-17.83-4.72-5.06-9.99-8.97-15.8-11.72-5.82-2.75-11.9-4.13-18.26-4.13s-12.67,1.43-18.26,4.29-10.37,6.82-14.32,11.88c-3.95,5.07-7.02,10.79-9.21,17.17-2.2,6.38-3.29,12.98-3.29,19.81s1.26,13.65,3.78,19.81c2.52,6.17,5.92,11.61,10.2,16.34,4.28,4.73,9.38,8.37,15.3,10.9,5.92,2.53,12.06,3.8,18.43,3.8Z"/>
    <path class="cls-3" d="M1309.83,435.02c-13.82,0-26.33-2.34-37.52-6.99-11.19-4.66-20.73-11.07-28.63-19.2-7.9-8.14-13.93-17.41-18.1-27.82-4.17-10.41-6.25-21.59-6.25-33.52,0-16.05,3.67-30.86,11.02-44.43,7.35-13.56,17.77-24.41,31.26-32.55,13.49-8.13,29.67-12.21,48.54-12.21s34.66,4.08,48.05,12.22c13.38,8.15,23.69,18.85,30.93,32.11,7.24,13.26,10.86,27.7,10.86,43.35,0,2.83-.11,5.49-.33,7.99-.22,2.5-.44,4.62-.66,6.35h-132.95c.66,9.01,3.13,16.68,7.4,23,4.28,6.32,9.76,11.2,16.45,14.63,6.69,3.43,13.76,5.15,21.23,5.15,8.99,0,17.39-2.14,25.17-6.42,7.79-4.28,13.11-10.04,15.96-17.28l37.52,10.53c-3.95,8.78-9.76,16.57-17.44,23.37-7.68,6.8-16.78,12.12-27.31,15.96-10.53,3.84-22.27,5.76-35.21,5.76Zm-45.08-102.35h90.17c-.88-8.58-3.35-16.03-7.4-22.35-4.06-6.33-9.38-11.26-15.96-14.79-6.58-3.54-13.93-5.31-22.05-5.31s-15.09,1.77-21.56,5.31c-6.47,3.54-11.74,8.47-15.8,14.79-4.06,6.32-6.53,13.78-7.4,22.35Z"/>
  </g>
  <g>
    <path class="cls-1" d="M21.54,507.88v58.89H8.28v-83.29h10.79l47.16,60.18v-60.07h13.14v83.18h-11.38l-46.46-58.89Z"/>
    <path class="cls-1" d="M123.13,567.94c-4.85,0-9.19-.83-13.02-2.5-3.83-1.67-7.14-3.97-9.91-6.92-2.78-2.94-4.91-6.3-6.39-10.05-1.49-3.76-2.23-7.73-2.23-11.91s.74-8.39,2.23-12.15c1.48-3.76,3.62-7.11,6.39-10.05,2.78-2.94,6.1-5.25,9.97-6.92,3.87-1.67,8.19-2.5,12.96-2.5s9.17,.83,12.96,2.5c3.79,1.67,7.1,3.97,9.91,6.92s4.97,6.29,6.45,10.05c1.48,3.76,2.23,7.81,2.23,12.15s-.74,8.16-2.23,11.91c-1.49,3.76-3.62,7.11-6.39,10.05-2.78,2.94-6.1,5.25-9.97,6.92-3.87,1.66-8.19,2.5-12.96,2.5Zm-18.3-31.5c0,3.93,.82,7.44,2.46,10.53,1.64,3.08,3.83,5.51,6.57,7.29,2.74,1.77,5.79,2.66,9.15,2.66s6.65-.89,9.39-2.66c2.74-1.77,4.93-4.24,6.57-7.4,1.64-3.16,2.46-6.63,2.46-10.41s-.82-7.34-2.46-10.47c-1.64-3.12-3.85-5.57-6.63-7.35-2.78-1.77-5.85-2.66-9.21-2.66s-6.53,.93-9.27,2.78c-2.74,1.85-4.93,4.32-6.57,7.4s-2.46,6.52-2.46,10.29Z"/>
    <path class="cls-1" d="M199.39,563.84c-1.02,.47-2.39,1.04-4.11,1.7-1.72,.67-3.6,1.23-5.63,1.7-2.03,.47-4.15,.7-6.34,.7-2.66,0-5.12-.49-7.39-1.46-2.27-.97-4.09-2.47-5.46-4.5-1.37-2.02-2.05-4.63-2.05-7.82v-38.31h-8.21v-9.97h8.21v-20.18h12.9v20.18h13.37v9.97h-13.37v34.06c.16,2.1,.84,3.65,2.05,4.66,1.21,1.01,2.72,1.52,4.52,1.52s3.54-.33,5.22-1c1.68-.66,2.83-1.15,3.46-1.47l2.82,10.21Z"/>
    <path class="cls-1" d="M230.83,589.18c-2.74,0-5.4-.41-7.98-1.23-2.58-.82-4.85-2.17-6.8-4.05l5.75-8.68c.94,.94,2.09,1.62,3.46,2.05,1.37,.43,2.72,.65,4.05,.65,1.56,0,3.01-.39,4.34-1.17,1.33-.78,2.38-1.83,3.17-3.15,.78-1.32,1.17-2.84,1.17-4.55v-63.17h12.9v62.3c0,4.04-.94,7.66-2.82,10.85-1.88,3.19-4.3,5.68-7.27,7.47-2.97,1.79-6.3,2.68-9.97,2.68Zm7.16-93.38v-14.19h12.9v14.19h-12.9Z"/>
    <path class="cls-1" d="M265.79,543.14v-37.26h12.9v34.64c0,5.43,1,9.51,2.99,12.26,1.99,2.75,4.91,4.13,8.74,4.13,2.42,0,4.79-.5,7.1-1.5,2.31-1,4.42-2.49,6.34-4.46,1.92-1.97,3.46-4.34,4.63-7.12v-37.96h12.9v46.38c0,1.4,.27,2.42,.82,3.08,.55,.66,1.45,1.03,2.7,1.1v10.32c-1.33,.23-2.45,.37-3.34,.41-.9,.04-1.66,.1-2.29,.18-2.43-.08-4.42-.74-5.98-1.98-1.57-1.24-2.46-2.87-2.7-4.89l-.23-5.93c-2.66,4.27-6.2,7.57-10.62,9.9-4.42,2.33-9.25,3.49-14.49,3.49-6.41,0-11.26-2.1-14.55-6.29-3.28-4.19-4.93-10.36-4.93-18.51Z"/>
    <path class="cls-1" d="M359.64,567.94c-5.16,0-10.05-.86-14.66-2.58-4.62-1.72-8.56-4.26-11.85-7.63l4.69-8.56c3.6,3.05,7.17,5.3,10.73,6.75,3.56,1.45,7.1,2.17,10.62,2.17s6.63-.67,8.86-2.01c2.23-1.34,3.34-3.31,3.34-5.92,0-1.94-.61-3.37-1.82-4.3-1.21-.93-2.93-1.74-5.16-2.44-2.23-.7-4.87-1.47-7.92-2.33-4.3-1.31-7.96-2.69-10.97-4.13-3.01-1.43-5.26-3.2-6.75-5.29-1.49-2.09-2.23-4.76-2.23-8.02,0-3.87,1.02-7.2,3.05-9.99,2.03-2.79,4.87-4.94,8.51-6.45,3.64-1.51,7.84-2.27,12.61-2.27,4.46,0,8.58,.69,12.38,2.05,3.79,1.37,7.14,3.5,10.03,6.39l-5.51,8.45c-2.66-2.42-5.44-4.22-8.33-5.4-2.89-1.17-5.98-1.76-9.27-1.76-1.8,0-3.58,.21-5.34,.64s-3.23,1.2-4.4,2.32c-1.17,1.12-1.76,2.69-1.76,4.7,0,1.7,.49,3.04,1.47,4,.98,.97,2.4,1.8,4.28,2.49,1.88,.7,4.18,1.47,6.92,2.32,4.77,1.32,8.84,2.67,12.2,4.06,3.36,1.39,5.96,3.15,7.8,5.28,1.84,2.13,2.76,5.05,2.76,8.76,0,5.8-2.21,10.37-6.63,13.69-4.42,3.33-10.31,4.99-17.66,4.99Z"/>
    <path class="cls-1" d="M429.44,563.84c-1.02,.47-2.39,1.04-4.11,1.7-1.72,.67-3.6,1.23-5.63,1.7-2.03,.47-4.15,.7-6.34,.7-2.66,0-5.12-.49-7.39-1.46-2.27-.97-4.09-2.47-5.45-4.5-1.37-2.02-2.05-4.63-2.05-7.82v-38.31h-8.21v-9.97h8.21v-20.18h12.9v20.18h13.37v9.97h-13.37v34.06c.16,2.1,.84,3.65,2.05,4.66,1.21,1.01,2.72,1.52,4.52,1.52s3.54-.33,5.22-1c1.68-.66,2.83-1.15,3.46-1.47l2.82,10.21Z"/>
    <path class="cls-1" d="M462.88,548.99c0-3.88,1.11-7.26,3.34-10.17,2.23-2.9,5.32-5.15,9.27-6.74,3.95-1.59,8.46-2.38,13.55-2.38,2.74,0,5.51,.22,8.33,.65,2.82,.43,5.36,1.04,7.63,1.82v-3.85c0-4.23-1.29-7.55-3.87-9.93-2.58-2.39-6.3-3.58-11.14-3.58-3.44,0-6.69,.59-9.74,1.76s-6.3,2.93-9.74,5.28l-4.22-8.8c3.91-2.66,7.94-4.67,12.08-6.04,4.14-1.37,8.49-2.05,13.02-2.05,8.21,0,14.66,2.15,19.36,6.44,4.69,4.29,7.04,10.38,7.04,18.27v22.62c0,1.47,.27,2.51,.82,3.13,.55,.62,1.45,.97,2.7,1.04v10.32c-1.17,.23-2.21,.39-3.11,.47-.9,.08-1.66,.16-2.29,.23-2.82-.08-4.93-.78-6.34-2.11-1.41-1.33-2.23-2.89-2.46-4.69l-.35-3.52c-2.58,3.44-5.96,6.1-10.15,7.98-4.18,1.88-8.39,2.82-12.61,2.82s-7.7-.83-10.91-2.5c-3.21-1.67-5.71-3.93-7.51-6.8-1.8-2.87-2.7-6.08-2.7-9.65Zm39.07,3.79c.86-1.08,1.58-2.11,2.17-3.12s.88-1.92,.88-2.77v-6.81c-2.19-.85-4.5-1.48-6.92-1.9-2.43-.42-4.77-.63-7.04-.63-4.77,0-8.62,.92-11.56,2.77-2.93,1.85-4.4,4.38-4.4,7.61,0,1.77,.49,3.44,1.47,5.02,.98,1.58,2.38,2.89,4.22,3.92,1.84,1.04,4.09,1.56,6.75,1.56,2.89,0,5.63-.56,8.21-1.67,2.58-1.11,4.65-2.44,6.22-3.98Z"/>
    <path class="cls-1" d="M558.61,536.44c0-5.81,1.19-11.1,3.58-15.87,2.38-4.77,5.65-8.56,9.8-11.39,4.14-2.83,8.92-4.24,14.31-4.24,4.77,0,9.05,1.21,12.85,3.64,3.79,2.42,6.71,5.4,8.74,8.92v-36.37h12.9v71.09c0,1.41,.27,2.45,.82,3.11,.55,.67,1.45,1.04,2.7,1.11v10.32c-2.35,.39-4.22,.63-5.63,.7-2.43,0-4.46-.72-6.1-2.17-1.64-1.45-2.54-3.15-2.7-5.1l-.12-4.46c-2.43,3.83-5.61,6.82-9.56,8.97-3.95,2.15-8.08,3.23-12.38,3.23s-8.11-.83-11.67-2.5c-3.56-1.67-6.65-3.95-9.27-6.86-2.62-2.91-4.65-6.24-6.1-9.99-1.45-3.76-2.17-7.81-2.17-12.15Zm49.27,8.44v-15.84c-.86-2.47-2.25-4.66-4.17-6.59-1.92-1.93-4.07-3.49-6.45-4.68-2.39-1.2-4.79-1.79-7.22-1.79-2.66,0-5.1,.58-7.33,1.74-2.23,1.16-4.15,2.68-5.75,4.57-1.6,1.89-2.84,4.09-3.7,6.59-.86,2.51-1.29,5.11-1.29,7.81s.47,5.28,1.41,7.75c.94,2.47,2.29,4.65,4.05,6.54s3.79,3.35,6.1,4.39c2.31,1.04,4.83,1.56,7.57,1.56,1.72,0,3.46-.29,5.22-.87,1.76-.58,3.42-1.41,4.99-2.49,1.56-1.08,2.93-2.37,4.11-3.88,1.17-1.5,1.99-3.1,2.46-4.8Z"/>
    <path class="cls-1" d="M665.01,567.94c-4.85,0-9.19-.84-13.02-2.5-3.83-1.67-7.16-3.96-9.97-6.87s-4.99-6.25-6.51-10.01-2.29-7.74-2.29-11.94c0-5.8,1.33-11.1,3.99-15.89,2.66-4.8,6.39-8.62,11.2-11.49,4.81-2.86,10.34-4.29,16.6-4.29s12.06,1.45,16.72,4.36c4.65,2.9,8.27,6.72,10.85,11.44,2.58,4.72,3.87,9.8,3.87,15.22,0,.93-.04,1.8-.12,2.62-.08,.81-.16,1.45-.23,1.92h-49.27c.39,3.63,1.45,6.78,3.17,9.44,1.72,2.66,3.95,4.75,6.69,6.25,2.74,1.51,5.63,2.26,8.68,2.26,3.52,0,6.82-.86,9.91-2.58,3.09-1.72,5.18-3.99,6.28-6.8l11.03,3.17c-1.33,2.97-3.36,5.65-6.1,8.04-2.74,2.39-5.92,4.26-9.56,5.63-3.64,1.37-7.61,2.05-11.91,2.05Zm-18.42-35.9h37.07c-.31-3.53-1.31-6.59-2.99-9.2-1.68-2.61-3.89-4.66-6.63-6.15-2.74-1.5-5.71-2.24-8.92-2.24s-6.28,.75-8.97,2.24c-2.7,1.5-4.91,3.55-6.63,6.15-1.72,2.61-2.7,5.67-2.93,9.2Z"/>
    <path class="cls-1" d="M728.83,567.94c-5.16,0-10.05-.86-14.66-2.58-4.62-1.72-8.56-4.26-11.85-7.63l4.69-8.56c3.6,3.05,7.17,5.3,10.73,6.75,3.56,1.45,7.1,2.17,10.62,2.17s6.63-.67,8.86-2.01c2.23-1.34,3.34-3.31,3.34-5.92,0-1.94-.61-3.37-1.82-4.3-1.21-.93-2.93-1.74-5.16-2.44-2.23-.7-4.87-1.47-7.92-2.33-4.3-1.31-7.96-2.69-10.97-4.13-3.01-1.43-5.26-3.2-6.75-5.29-1.49-2.09-2.23-4.76-2.23-8.02,0-3.87,1.02-7.2,3.05-9.99,2.03-2.79,4.87-4.94,8.51-6.45,3.64-1.51,7.84-2.27,12.61-2.27,4.46,0,8.58,.69,12.38,2.05,3.79,1.37,7.14,3.5,10.03,6.39l-5.51,8.45c-2.66-2.42-5.44-4.22-8.33-5.4-2.89-1.17-5.98-1.76-9.27-1.76-1.8,0-3.58,.21-5.34,.64s-3.23,1.2-4.4,2.32c-1.17,1.12-1.76,2.69-1.76,4.7,0,1.7,.49,3.04,1.47,4,.98,.97,2.4,1.8,4.28,2.49,1.88,.7,4.18,1.47,6.92,2.32,4.77,1.32,8.84,2.67,12.2,4.06,3.36,1.39,5.96,3.15,7.8,5.28,1.84,2.13,2.76,5.05,2.76,8.76,0,5.8-2.21,10.37-6.63,13.69-4.42,3.33-10.31,4.99-17.66,4.99Z"/>
    <path class="cls-1" d="M764.61,495.32v-14.19h12.9v14.19h-12.9Zm0,71.45v-61.36h12.9v61.36h-12.9Z"/>
    <path class="cls-1" d="M817.29,567.94c-4.15,0-7.94-.84-11.38-2.52-3.44-1.68-6.39-3.97-8.86-6.86-2.46-2.89-4.36-6.22-5.69-9.97-1.33-3.75-1.99-7.7-1.99-11.85,0-4.38,.68-8.49,2.05-12.32,1.37-3.83,3.32-7.22,5.87-10.15,2.54-2.93,5.53-5.22,8.97-6.86,3.44-1.64,7.27-2.46,11.5-2.46,4.93,0,9.25,1.13,12.96,3.4,3.71,2.27,6.78,5.28,9.21,9.03v-11.5h11.38v59.28c0,5.91-1.43,10.93-4.28,15.05-2.86,4.12-6.75,7.27-11.67,9.45-4.93,2.18-10.44,3.27-16.54,3.27-6.8,0-12.46-1.17-16.95-3.52-4.5-2.35-8.31-5.55-11.44-9.62l7.16-6.8c2.5,3.28,5.59,5.79,9.27,7.51,3.68,1.72,7.66,2.58,11.97,2.58,3.52,0,6.76-.62,9.74-1.86,2.97-1.24,5.36-3.16,7.16-5.76,1.8-2.6,2.7-5.88,2.7-9.86v-9.27c-2.19,3.6-5.2,6.43-9.03,8.51-3.83,2.07-7.86,3.11-12.08,3.11Zm4.22-10.44c1.95,0,3.83-.35,5.63-1.06,1.8-.7,3.46-1.6,4.99-2.7,1.53-1.09,2.83-2.38,3.93-3.87,1.09-1.48,1.88-3.01,2.35-4.58v-16.07c-1.02-2.66-2.45-4.97-4.28-6.92-1.84-1.95-3.93-3.5-6.28-4.63-2.35-1.13-4.77-1.7-7.27-1.7-2.82,0-5.34,.61-7.57,1.82-2.23,1.21-4.13,2.82-5.69,4.81-1.57,1.99-2.78,4.24-3.64,6.74-.86,2.5-1.29,5.08-1.29,7.74s.49,5.34,1.47,7.8c.98,2.46,2.33,4.65,4.05,6.57,1.72,1.92,3.73,3.4,6.04,4.46,2.31,1.06,4.83,1.58,7.57,1.58Z"/>
    <path class="cls-1" d="M921.81,566.77h-12.79v-33.98c0-5.72-.94-9.87-2.82-12.46-1.88-2.59-4.62-3.89-8.21-3.89-2.5,0-4.99,.63-7.45,1.9s-4.65,2.94-6.57,5.02c-1.92,2.08-3.34,4.5-4.28,7.27v36.14h-12.9v-60.89h11.73v12.19c1.56-2.71,3.6-5.04,6.1-6.97,2.5-1.94,5.36-3.45,8.56-4.53,3.21-1.09,6.61-1.63,10.21-1.63s6.73,.66,9.15,1.98c2.42,1.32,4.3,3.12,5.63,5.4,1.33,2.29,2.27,4.92,2.82,7.9,.55,2.98,.82,6.14,.82,9.47v37.07Z"/>
  </g>
</svg>