<svg xmlns="http://www.w3.org/2000/svg" width="135.598" height="138.067" viewBox="0 0 135.598 138.067">
  <g id="Group_72" data-name="Group 72" transform="translate(-1440 -1436.532)">
    <g id="Group_69" data-name="Group 69">
      <path id="Path_136" data-name="Path 136" d="M130.291,213.334l2.3-5.363,4.981,4.981L150.022,200.5l-9.961-9.961-9.769,22.8Z" transform="translate(1343.131 1279.84)" fill="#ffdc9b"/>
      <path id="Path_124" data-name="Path 124" d="M130.922,79.448H113.507a4.7,4.7,0,0,1-.32.354l-6.655,6.655-.005.005h22.057v65.461H7.014V86.462H66.683L73.7,79.448H4.676A4.676,4.676,0,0,0,0,84.124v74.813H135.6V84.124A4.676,4.676,0,0,0,130.922,79.448Z" transform="translate(1440 1380.593)" fill="#1a1a1a"/>
      <path id="Path_125" data-name="Path 125" d="M64.213,156.6l-10.38,4.449a2.192,2.192,0,0,1-1.006.18,2.218,2.218,0,0,1-2.022-1.863,2.159,2.159,0,0,1,.153-1.19l3.017-7.039h0l9.769-22.8,22.408-22.408H26.483v65.461H148.054V105.931H126L83.667,148.26Z" transform="translate(1420.531 1361.124)" fill="#fff"/>
      <path id="Path_126" data-name="Path 126" d="M0,388.939a4.676,4.676,0,0,0,4.676,4.676H130.922a4.676,4.676,0,0,0,4.676-4.676v-9.352H0Zm67.8-5.845a3.507,3.507,0,1,1-3.507,3.507A3.507,3.507,0,0,1,67.8,383.094Z" transform="translate(1440 1159.943)" fill="#717171"/>
      <path id="Path_127" data-name="Path 127" d="M177.655,461.9h41.5l-1.461-11.69H179.116Z" transform="translate(1309.395 1108.026)" fill="#1a1a1a"/>
      <path id="Path_128" data-name="Path 128" d="M170.062,494.345a2.338,2.338,0,0,0,0,4.676h42.082a2.338,2.338,0,0,0,0-4.676H170.062Z" transform="translate(1316.696 1075.578)" fill="#1a1a1a"/>
      <g id="Group_16" data-name="Group 16" transform="translate(1488.511 1543.037)">
        <path id="Path_129" data-name="Path 129" d="M183.172,437.228h38.576l-.584-4.676H183.757Z" transform="translate(-183.172 -422.032)" fill="#fff"/>
        <circle id="Ellipse_2" data-name="Ellipse 2" cx="3.507" cy="3.507" r="3.507" transform="translate(15.781)" fill="#fff"/>
      </g>
      <rect id="Rectangle_37" data-name="Rectangle 37" width="90" height="58" transform="translate(1467 1467)" fill="#fff"/>
      <rect id="Rectangle_38" data-name="Rectangle 38" width="54" height="7" transform="translate(1503 1460)" fill="#1a1a1a"/>
    </g>
    <g id="Group_70" data-name="Group 70" transform="translate(1250.066 3316.685) rotate(-135)">
      <path id="Path_170" data-name="Path 170" d="M448.79,100.205l8.923-14.872,8.924,14.872-8.924,1.487Z" transform="translate(646.926 1363.667)" fill="#ffd6a0"/>
      <path id="Path_169" data-name="Path 169" d="M448.79,100.205l8.923-14.872v14.872Z" transform="translate(646.926 1363.667)" fill="#ffc170"/>
      <path id="Path_172" data-name="Path 172" d="M448.79,203.15V138.007h17.847V203.15l-8.924,1.487Z" transform="translate(646.926 1325.865)" fill="red"/>
      <rect id="Rectangle_41" data-name="Rectangle 41" width="8.923" height="65.143" transform="translate(1095.716 1463.874)" fill="red"/>
      <path id="Path_171" data-name="Path 171" d="M467.733,91.282l3.575-5.949,3.574,5.949Z" transform="translate(633.332 1363.667)"/>
      <path id="Path_168" data-name="Path 168" d="M466.637,386.015V387.5a8.924,8.924,0,0,1-17.847,0v-1.487l8.923-1.489Z" transform="translate(646.926 1148.951)" fill="red"/>
      <rect id="Rectangle_39" data-name="Rectangle 39" width="17.847" height="5.95" transform="translate(1095.716 1529.017)" fill="#fff"/>
      <rect id="Rectangle_40" data-name="Rectangle 40" width="8.923" height="5.95" transform="translate(1095.716 1529.017)" fill="#dedde0"/>
    </g>
  </g>
</svg>
