<svg id="pi-17" xmlns="http://www.w3.org/2000/svg" width="259.009" height="43.014" viewBox="0 0 259.009 43.014">
  <path id="Path_12" data-name="Path 12" d="M338.936,488.378a14.09,14.09,0,0,1,5.228-5.74,13.92,13.92,0,0,1,7.379-2.011,12.964,12.964,0,0,1,6.231,1.437,12.644,12.644,0,0,1,4.276,3.62v-4.535h8.1V512.96h-8.1v-4.654a11.893,11.893,0,0,1-4.276,3.7,13.081,13.081,0,0,1-6.3,1.463,13.547,13.547,0,0,1-7.322-2.068,14.478,14.478,0,0,1-5.228-5.833A18.718,18.718,0,0,1,337,496.936,18.428,18.428,0,0,1,338.936,488.378Zm21.966,3.645a8.092,8.092,0,0,0-3.1-3.211,8.273,8.273,0,0,0-4.193-1.122,8.138,8.138,0,0,0-4.137,1.091,8.273,8.273,0,0,0-3.071,3.185,9.99,9.99,0,0,0-1.174,4.969,10.311,10.311,0,0,0,1.174,5.026,8.5,8.5,0,0,0,3.1,3.3,7.869,7.869,0,0,0,4.106,1.148,8.309,8.309,0,0,0,4.193-1.117,8.143,8.143,0,0,0,3.1-3.216A11.577,11.577,0,0,0,360.9,492.023Z" transform="translate(-336.994 -470.477)" fill="red"/>
  <path id="Path_13" data-name="Path 13" d="M428.647,472.588a13.17,13.17,0,0,1,6.231-1.437,13.93,13.93,0,0,1,7.379,2.011,14.137,14.137,0,0,1,5.223,5.714,18.361,18.361,0,0,1,1.924,8.583,18.718,18.718,0,0,1-1.924,8.64,14.514,14.514,0,0,1-5.223,5.833A13.652,13.652,0,0,1,434.878,504a13.139,13.139,0,0,1-6.231-1.406,12.12,12.12,0,0,1-4.281-3.62v4.535H416.33V461h8.035v15.1A10.889,10.889,0,0,1,428.647,472.588Zm11.376,9.9a8.175,8.175,0,0,0-3.1-3.185,8.273,8.273,0,0,0-4.163-1.091,7.989,7.989,0,0,0-4.106,1.122,8.3,8.3,0,0,0-3.1,3.242,11.168,11.168,0,0,0,0,9.99,8.351,8.351,0,0,0,3.1,3.247,8.113,8.113,0,0,0,8.273-.031,8.532,8.532,0,0,0,3.1-3.273,10.305,10.305,0,0,0,1.174-5.052,10.047,10.047,0,0,0-1.184-4.969Z" transform="translate(-375.307 -461)" fill="red"/>
  <path id="Path_14" data-name="Path 14" d="M489.54,478.9a13.873,13.873,0,0,1,12.663-7.756,13.516,13.516,0,0,1,5.915,1.35,11.81,11.81,0,0,1,4.478,3.589V461h8.154v42.494H512.6v-4.705a10.9,10.9,0,0,1-4.193,3.79,13.129,13.129,0,0,1-6.257,1.432,13.7,13.7,0,0,1-7.353-2.068,14.432,14.432,0,0,1-5.254-5.833,18.719,18.719,0,0,1-1.924-8.64,18.429,18.429,0,0,1,1.923-8.568Zm21.966,3.645a8.072,8.072,0,0,0-3.1-3.211,8.232,8.232,0,0,0-4.188-1.122,8.138,8.138,0,0,0-4.137,1.091,8.274,8.274,0,0,0-3.071,3.185,9.99,9.99,0,0,0-1.179,4.969,10.342,10.342,0,0,0,1.179,5.026,8.5,8.5,0,0,0,3.1,3.3,7.87,7.87,0,0,0,4.106,1.148,8.274,8.274,0,0,0,4.188-1.117,8.118,8.118,0,0,0,3.1-3.216A11.577,11.577,0,0,0,511.506,482.547Z" transform="translate(-409.731 -461)" fill="red"/>
  <path id="Path_15" data-name="Path 15" d="M564.84,488.378a14.112,14.112,0,0,1,5.222-5.74,13.93,13.93,0,0,1,7.374-2.011,12.962,12.962,0,0,1,6.2,1.438,12.657,12.657,0,0,1,4.281,3.62V481.15h8.128V512.96h-8.1v-4.654a11.954,11.954,0,0,1-4.281,3.7,13.067,13.067,0,0,1-6.288,1.463,13.548,13.548,0,0,1-7.322-2.068,14.514,14.514,0,0,1-5.222-5.833,18.717,18.717,0,0,1-1.924-8.64A18.428,18.428,0,0,1,564.84,488.378Zm21.966,3.645a8.108,8.108,0,0,0-3.1-3.211,8.274,8.274,0,0,0-4.194-1.122,8.108,8.108,0,0,0-4.137,1.091,8.227,8.227,0,0,0-3.077,3.185,10.045,10.045,0,0,0-1.174,4.969,10.367,10.367,0,0,0,1.174,5.026,8.5,8.5,0,0,0,3.1,3.3,7.886,7.886,0,0,0,4.106,1.148,8.309,8.309,0,0,0,4.194-1.117,8.154,8.154,0,0,0,3.1-3.216,11.578,11.578,0,0,0,0-10.052Z" transform="translate(-446.095 -470.477)" fill="red"/>
  <path id="Path_16" data-name="Path 16" d="M650.251,461v42.494H642.21V461Z" transform="translate(-484.389 -461)" fill="red"/>
  <path id="Path_17" data-name="Path 17" d="M681.121,461v42.494H673.08V461Z" transform="translate(-499.297 -461)" fill="red"/>
  <path id="Path_18" data-name="Path 18" d="M701.9,488.378a14.111,14.111,0,0,1,5.223-5.74,13.93,13.93,0,0,1,7.379-2.011,12.964,12.964,0,0,1,6.231,1.438,12.658,12.658,0,0,1,4.281,3.62v-4.535h8.077V512.96h-8.077v-4.654a11.955,11.955,0,0,1-4.281,3.7,13.066,13.066,0,0,1-6.288,1.463,13.548,13.548,0,0,1-7.322-2.068,14.514,14.514,0,0,1-5.223-5.833,18.72,18.72,0,0,1-1.9-8.635A18.429,18.429,0,0,1,701.9,488.378Zm21.966,3.645a8.108,8.108,0,0,0-3.1-3.211,8.274,8.274,0,0,0-4.193-1.122,8.072,8.072,0,0,0-7.2,4.276,9.991,9.991,0,0,0-1.179,4.969,10.342,10.342,0,0,0,1.179,5.026,8.449,8.449,0,0,0,3.1,3.3,7.885,7.885,0,0,0,4.106,1.148,8.31,8.31,0,0,0,4.193-1.117,8.155,8.155,0,0,0,3.1-3.216,11.577,11.577,0,0,0,0-10.052Z" transform="translate(-512.293 -470.477)" fill="red"/>
  <path id="Path_19" data-name="Path 19" d="M803.6,472.784a10.9,10.9,0,0,1,4.39,4.654,15.942,15.942,0,0,1,1.582,7.379v18.661h-8.041V485.9a8.226,8.226,0,0,0-1.9-5.827,6.747,6.747,0,0,0-5.171-2.037,6.868,6.868,0,0,0-5.254,2.037,8.2,8.2,0,0,0-1.924,5.827v17.581H779.25V461h8.041v14.644a10.512,10.512,0,0,1,4.137-3.242,13.7,13.7,0,0,1,5.745-1.179A12.958,12.958,0,0,1,803.6,472.784Z" transform="translate(-550.568 -461)" fill="red"/>
</svg>
