<svg id="Component_1_1" data-name="Component 1 – 1" xmlns="http://www.w3.org/2000/svg" width="1035.492" height="267.186" viewBox="0 0 1035.492 267.186">
  <g id="Group_13" data-name="Group 13" transform="translate(-193.492 -274.302)">
    <g id="pi-22" transform="translate(193.492 274.302)">
      <g id="Group_6" data-name="Group 6" transform="translate(0)">
        <g id="Group_5" data-name="Group 5">
          <path id="Path_78" data-name="Path 78" d="M309.11,452.763V382.85h11.13v69.913Z" transform="translate(-309.11 -380.874)" fill="#f2f2f2"/>
          <path id="Path_79" data-name="Path 79" d="M357.74,452.763V382.85h24.814q11.319,0,18.855,4.677a29.989,29.989,0,0,1,11.372,12.6,39.711,39.711,0,0,1,3.836,17.573,38.916,38.916,0,0,1-4.183,18.508,29.722,29.722,0,0,1-11.866,12.213,36.045,36.045,0,0,1-18.014,4.33H357.74ZM405.393,417.7a29.572,29.572,0,0,0-2.712-13,21.239,21.239,0,0,0-7.777-8.86,22.465,22.465,0,0,0-12.36-3.248H368.86V443.01h13.684A22.159,22.159,0,0,0,395,439.667a21.379,21.379,0,0,0,7.725-9.06A30.028,30.028,0,0,0,405.393,417.7Z" transform="translate(-306.629 -380.874)" fill="#f2f2f2"/>
          <path id="Path_80" data-name="Path 80" d="M447.005,452.866a27.181,27.181,0,0,1-10.93-2.1,25.781,25.781,0,0,1-8.366-5.77,26.085,26.085,0,0,1-5.465-8.408,26.385,26.385,0,0,1-1.923-10.016,26.972,26.972,0,0,1,3.353-13.337,25.318,25.318,0,0,1,9.406-9.638,26.681,26.681,0,0,1,13.936-3.6,25.8,25.8,0,0,1,26.391,26.034c0,.778-.031,1.513-.095,2.2s-.126,1.219-.2,1.608H431.755a17.953,17.953,0,0,0,2.659,7.925A15.344,15.344,0,0,0,440.026,443a14.939,14.939,0,0,0,7.283,1.892,16.9,16.9,0,0,0,8.324-2.165,11.156,11.156,0,0,0,5.266-5.707l9.259,2.659a19.654,19.654,0,0,1-5.118,6.747,26.174,26.174,0,0,1-8.019,4.729A28.475,28.475,0,0,1,447.005,452.866Zm-15.46-30.122h31.12a16.808,16.808,0,0,0-2.512-7.725,15.156,15.156,0,0,0-5.56-5.161,15.593,15.593,0,0,0-20.579,5.161A15.6,15.6,0,0,0,431.545,422.744Z" transform="translate(-303.438 -380)" fill="#f2f2f2"/>
          <path id="Path_81" data-name="Path 81" d="M479.34,380.98h10.836v57.29c0,2.564.4,4.235,1.177,4.992a4.1,4.1,0,0,0,2.953,1.135A14.115,14.115,0,0,0,498,443.9c1.219-.326,2.218-.62,3.006-.883l1.577,8.471a31.747,31.747,0,0,1-5.612,1.671,28.109,28.109,0,0,1-5.812.694c-3.742,0-6.642-1.03-8.713-3.111s-3.1-4.95-3.1-8.639Z" transform="translate(-300.427 -380.969)" fill="#f2f2f2"/>
          <path id="Path_82" data-name="Path 82" d="M507.44,392.888V380.97h10.836v11.918Zm0,59.97v-51.5h10.836v51.5Z" transform="translate(-298.994 -380.97)" fill="#f2f2f2"/>
          <path id="Path_83" data-name="Path 83" d="M544.646,451.85l-19.5-51.1h11.225l14.577,41.136,14.767-41.136h10.342l-19.5,51.1Z" transform="translate(-298.091 -379.961)" fill="#f2f2f2"/>
          <path id="Path_84" data-name="Path 84" d="M604.575,452.866a27.181,27.181,0,0,1-10.93-2.1,25.779,25.779,0,0,1-8.366-5.77,26.081,26.081,0,0,1-5.465-8.408,26.382,26.382,0,0,1-1.923-10.016,26.972,26.972,0,0,1,3.353-13.337,25.318,25.318,0,0,1,9.406-9.638,26.681,26.681,0,0,1,13.936-3.6,25.8,25.8,0,0,1,26.391,26.034c0,.778-.032,1.513-.095,2.2s-.126,1.219-.2,1.608H589.325a17.949,17.949,0,0,0,2.659,7.925A15.343,15.343,0,0,0,597.6,443a14.94,14.94,0,0,0,7.283,1.892,16.9,16.9,0,0,0,8.324-2.165,11.156,11.156,0,0,0,5.265-5.707l9.26,2.659a19.654,19.654,0,0,1-5.118,6.747,26.174,26.174,0,0,1-8.019,4.729A28.391,28.391,0,0,1,604.575,452.866Zm-15.46-30.122h31.12a16.806,16.806,0,0,0-2.512-7.725,15.156,15.156,0,0,0-5.56-5.161,15.593,15.593,0,0,0-20.579,5.161A15.6,15.6,0,0,0,589.115,422.744Z" transform="translate(-295.401 -380)" fill="#f2f2f2"/>
          <path id="Path_85" data-name="Path 85" d="M665.671,409.748a22.8,22.8,0,0,0-11.078,2.859,15.624,15.624,0,0,0-6.947,7.777v31.509H636.81v-51.1h9.942v11.025a24.482,24.482,0,0,1,7.094-8.419,16.9,16.9,0,0,1,9.06-3.5h1.724a4.509,4.509,0,0,1,1.03.095v9.753Z" transform="translate(-292.395 -380.004)" fill="#f2f2f2"/>
          <path id="Path_86" data-name="Path 86" d="M691.44,436.964a13.63,13.63,0,0,1,2.806-8.534,17.936,17.936,0,0,1,7.777-5.655,30.239,30.239,0,0,1,11.372-2,46.666,46.666,0,0,1,6.989.536,36.689,36.689,0,0,1,6.4,1.524v-3.227c0-3.552-1.082-6.338-3.248-8.334s-5.286-3.006-9.354-3.006a22.532,22.532,0,0,0-8.177,1.482,40.433,40.433,0,0,0-8.177,4.435l-3.542-7.389a41.1,41.1,0,0,1,10.142-5.076A34.739,34.739,0,0,1,715.361,400q10.342,0,16.249,5.4t5.907,15.334v18.981a3.936,3.936,0,0,0,.694,2.628,3.193,3.193,0,0,0,2.27.872v8.66a25.724,25.724,0,0,1-2.606.4c-.757.063-1.4.126-1.923.2a7.776,7.776,0,0,1-5.318-1.776,6.482,6.482,0,0,1-2.071-3.941l-.294-2.953a21.315,21.315,0,0,1-8.513,6.695,25.643,25.643,0,0,1-10.584,2.365,19.554,19.554,0,0,1-9.154-2.1,15.962,15.962,0,0,1-6.306-5.707A14.846,14.846,0,0,1,691.44,436.964Zm32.791,3.185a22,22,0,0,0,1.818-2.617,4.653,4.653,0,0,0,.736-2.323v-5.718a30.548,30.548,0,0,0-5.812-1.6,34.185,34.185,0,0,0-5.907-.536,18.032,18.032,0,0,0-9.7,2.323,7.194,7.194,0,0,0-3.689,6.39,7.883,7.883,0,0,0,1.23,4.214,9.589,9.589,0,0,0,3.542,3.29,11.347,11.347,0,0,0,5.665,1.3,17.387,17.387,0,0,0,6.895-1.4A16.743,16.743,0,0,0,724.231,440.148Z" transform="translate(-289.609 -379.999)" fill="#f2f2f2"/>
          <path id="Path_87" data-name="Path 87" d="M439.538,565.524h-21.2V519.7q0-9.822-3.395-14.336a11.116,11.116,0,0,0-9.417-4.519,17.947,17.947,0,0,0-11.866,4.751,26.169,26.169,0,0,0-7.9,12.234v47.695H364.4V519.7q0-9.822-3.321-14.336a10.911,10.911,0,0,0-9.333-4.519q-6.164,0-11.866,4.635a24.889,24.889,0,0,0-8.061,12.2v47.852H310.8V483.451h19.139v15.313a32.6,32.6,0,0,1,12.728-12.276,37.544,37.544,0,0,1,18.109-4.3q10.279,0,16.049,5a22.161,22.161,0,0,1,7.357,12.349A34.253,34.253,0,0,1,414.86,482.19q7.6,0,12.412,2.732a19.945,19.945,0,0,1,7.515,7.346,31.369,31.369,0,0,1,3.721,10.394,66.245,66.245,0,0,1,1.03,11.572v51.289Z" transform="translate(-309.024 -375.807)" fill="red"/>
          <path id="Path_88" data-name="Path 88" d="M489.581,567.1a46.537,46.537,0,0,1-18.035-3.363,40.624,40.624,0,0,1-22.46-22.6,42.855,42.855,0,0,1-3.006-16.112,44.081,44.081,0,0,1,5.3-21.346A40.558,40.558,0,0,1,466.4,488.044q9.727-5.865,23.332-5.864,13.448,0,23.091,5.875a40.7,40.7,0,0,1,14.861,15.429,42.769,42.769,0,0,1,5.223,20.831c0,1.356-.052,2.638-.158,3.836s-.21,2.218-.315,3.058h-63.9a22.21,22.21,0,0,0,3.563,11.057A21.006,21.006,0,0,0,480,549.3a22.027,22.027,0,0,0,10.205,2.47,24.8,24.8,0,0,0,12.1-3.079,16.267,16.267,0,0,0,7.672-8.3l18.035,5.066a33.03,33.03,0,0,1-8.387,11.225,40.487,40.487,0,0,1-13.127,7.672A48.958,48.958,0,0,1,489.581,567.1Zm-21.672-49.187h43.333a24.183,24.183,0,0,0-3.552-10.741,20.5,20.5,0,0,0-7.672-7.1,21.994,21.994,0,0,0-10.594-2.554,21.236,21.236,0,0,0-10.363,2.554,20.66,20.66,0,0,0-7.588,7.1A24.059,24.059,0,0,0,467.909,517.914Z" transform="translate(-302.124 -375.808)" fill="red"/>
          <path id="Path_89" data-name="Path 89" d="M571.869,567.1a60.089,60.089,0,0,1-20.326-3.479,44.075,44.075,0,0,1-16.532-10.279l7.746-13.758a54.9,54.9,0,0,0,14.4,8.86,37.227,37.227,0,0,0,13.915,2.848q6.164,0,9.89-2.133a6.929,6.929,0,0,0,3.721-6.4A5.714,5.714,0,0,0,582.62,538a18.12,18.12,0,0,0-5.927-2.817q-3.878-1.167-9.407-2.733a114.182,114.182,0,0,1-15.26-5.7,23.853,23.853,0,0,1-9.249-7.178q-3.169-4.288-3.164-11a23.336,23.336,0,0,1,4.194-13.968,27.47,27.47,0,0,1,11.708-9.133,43.79,43.79,0,0,1,17.636-3.279,50.536,50.536,0,0,1,16.764,2.764,39.972,39.972,0,0,1,14.388,8.934l-8.7,13.6a46.388,46.388,0,0,0-11.866-7.357,30.782,30.782,0,0,0-11.551-2.291,24.3,24.3,0,0,0-6.243.778,10.3,10.3,0,0,0-4.74,2.575,6.756,6.756,0,0,0-1.818,5.055,6.239,6.239,0,0,0,1.661,4.519,13.338,13.338,0,0,0,5.066,2.953q3.405,1.245,8.3,2.806a142.578,142.578,0,0,1,16.764,5.686,26.32,26.32,0,0,1,10.363,7.242q3.563,4.367,3.552,11.834,0,12.139-9.018,18.992Q587.056,567.09,571.869,567.1Z" transform="translate(-297.588 -375.807)" fill="red"/>
          <path id="Path_90" data-name="Path 90" d="M646.208,567.1a60.09,60.09,0,0,1-20.326-3.479,43.952,43.952,0,0,1-16.522-10.279l7.746-13.758a55.025,55.025,0,0,0,14.388,8.86,37.227,37.227,0,0,0,13.915,2.848c4.11,0,7.41-.715,9.88-2.133a6.93,6.93,0,0,0,3.721-6.4,5.715,5.715,0,0,0-2.06-4.761,18.015,18.015,0,0,0-5.928-2.817q-3.878-1.167-9.406-2.733a114.186,114.186,0,0,1-15.261-5.7,23.856,23.856,0,0,1-9.249-7.178q-3.168-4.288-3.163-11a23.335,23.335,0,0,1,4.194-13.968,27.469,27.469,0,0,1,11.708-9.133,43.79,43.79,0,0,1,17.636-3.279,50.535,50.535,0,0,1,16.764,2.764,39.972,39.972,0,0,1,14.388,8.934l-8.7,13.6a46.389,46.389,0,0,0-11.866-7.357,30.741,30.741,0,0,0-11.55-2.291,24.3,24.3,0,0,0-6.243.778,10.3,10.3,0,0,0-4.74,2.575,6.8,6.8,0,0,0-1.818,5.055,6.238,6.238,0,0,0,1.661,4.519,13.337,13.337,0,0,0,5.066,2.953q3.405,1.245,8.3,2.806a142.565,142.565,0,0,1,16.764,5.686,26.321,26.321,0,0,1,10.363,7.242q3.563,4.367,3.563,11.834,0,12.139-9.018,18.992Q661.4,567.09,646.208,567.1Z" transform="translate(-293.795 -375.807)" fill="red"/>
          <path id="Path_91" data-name="Path 91" d="M684.3,541.32a22.317,22.317,0,0,1,4.509-13.9,29.679,29.679,0,0,1,12.5-9.3,47.665,47.665,0,0,1,18.582-3.363,72.953,72.953,0,0,1,10.594.788,36.023,36.023,0,0,1,9.333,2.533V513.51q0-7.615-4.582-11.8t-13.758-4.194a36.1,36.1,0,0,0-13.127,2.375,70.44,70.44,0,0,0-12.969,6.8l-6.642-13.758a60.556,60.556,0,0,1,16.69-8.145,62,62,0,0,1,18.109-2.607q17.72,0,27.6,8.65t9.89,25.024V541.9c0,2.186.4,3.742,1.188,4.677a5.731,5.731,0,0,0,3.878,1.713v17.237q-2.853.473-5.139.788a16.893,16.893,0,0,1-3.878.158q-6.322,0-9.575-2.764a10.966,10.966,0,0,1-3.878-6.884l-.473-4.267a37.5,37.5,0,0,1-13.6,10.752A38.221,38.221,0,0,1,713.1,567.1a31.37,31.37,0,0,1-14.787-3.437,26.323,26.323,0,0,1-10.279-9.3A23.727,23.727,0,0,1,684.3,541.32Zm51.562,3.962a13.376,13.376,0,0,0,2.848-3.542,7.4,7.4,0,0,0,1.1-3.395v-8.177a42.933,42.933,0,0,0-8.229-2.386,44.518,44.518,0,0,0-8.387-.851q-8.229,0-13.527,3.468t-5.3,9.175a11.265,11.265,0,0,0,1.734,5.938,12.4,12.4,0,0,0,4.982,4.551,17.041,17.041,0,0,0,7.988,1.692,24.826,24.826,0,0,0,9.333-1.85A22.591,22.591,0,0,0,735.862,545.282Z" transform="translate(-289.973 -375.808)" fill="red"/>
          <path id="Path_92" data-name="Path 92" d="M808.743,567.1a34.214,34.214,0,0,1-15.1-3.331,35.6,35.6,0,0,1-11.782-9.112,42.227,42.227,0,0,1-7.588-13.39A48.044,48.044,0,0,1,771.58,525.1a49.827,49.827,0,0,1,2.764-16.8,42.532,42.532,0,0,1,7.9-13.705,35.666,35.666,0,0,1,12.181-9.186A36.735,36.735,0,0,1,810,482.17a32.778,32.778,0,0,1,16.921,4.267,35.955,35.955,0,0,1,12.023,11.551V483.442h18.508v78.395q0,12.249-6.012,20.978a38.55,38.55,0,0,1-16.291,13.358,57.206,57.206,0,0,1-23.721,4.635q-13.448,0-22.775-4.509a46.14,46.14,0,0,1-15.975-12.728l11.55-11.225a32.924,32.924,0,0,0,11.939,9.175,35.9,35.9,0,0,0,15.261,3.321,32.625,32.625,0,0,0,12.339-2.3,19.573,19.573,0,0,0,9.018-7.147q3.326-4.84,3.321-12.686V552.272a26.949,26.949,0,0,1-11.466,10.993A34.688,34.688,0,0,1,808.743,567.1Zm7.115-16.921a19.6,19.6,0,0,0,6.727-1.114,23.968,23.968,0,0,0,5.77-3.016,22.472,22.472,0,0,0,4.74-4.519,18.169,18.169,0,0,0,3.006-5.476V516.38a24.13,24.13,0,0,0-5.14-8.566,25.169,25.169,0,0,0-7.588-5.633,20.249,20.249,0,0,0-8.776-1.986,19.1,19.1,0,0,0-8.776,2.06,20.557,20.557,0,0,0-6.884,5.707,28.063,28.063,0,0,0-4.425,8.25,29.2,29.2,0,0,0-1.587,9.522,24.975,24.975,0,0,0,1.818,9.522,26.43,26.43,0,0,0,4.908,7.851,20.8,20.8,0,0,0,7.357,5.234A22.038,22.038,0,0,0,815.859,550.181Z" transform="translate(-285.521 -375.808)" fill="red"/>
          <path id="Path_93" data-name="Path 93" d="M910.171,567.1a46.536,46.536,0,0,1-18.035-3.363,40.624,40.624,0,0,1-22.46-22.6,42.855,42.855,0,0,1-3.006-16.112,44.079,44.079,0,0,1,5.3-21.346A40.583,40.583,0,0,1,887,488.044q9.727-5.865,23.332-5.864,13.448,0,23.091,5.875a40.8,40.8,0,0,1,14.872,15.429,42.767,42.767,0,0,1,5.224,20.831c0,1.356-.053,2.638-.158,3.836s-.21,2.218-.315,3.058H889.151a22.31,22.31,0,0,0,3.552,11.057,20.955,20.955,0,0,0,7.914,7.031,22.026,22.026,0,0,0,10.205,2.47,24.8,24.8,0,0,0,12.1-3.079,16.265,16.265,0,0,0,7.672-8.3l18.035,5.066a33.031,33.031,0,0,1-8.387,11.225,40.485,40.485,0,0,1-13.127,7.672A49.688,49.688,0,0,1,910.171,567.1ZM888.51,517.914h43.333a24.06,24.06,0,0,0-3.563-10.741,20.492,20.492,0,0,0-7.672-7.1,21.994,21.994,0,0,0-10.594-2.554,21.237,21.237,0,0,0-10.363,2.554,20.659,20.659,0,0,0-7.588,7.1A24.178,24.178,0,0,0,888.51,517.914Z" transform="translate(-280.671 -375.808)" fill="red"/>
        </g>
      </g>
      <g id="Group_8" data-name="Group 8" transform="translate(3.983 213.459)">
        <g id="Group_7" data-name="Group 7">
          <path id="Path_94" data-name="Path 94" d="M319.269,596.869v28.3H312.9V585.14h5.192l22.66,28.924V585.193h6.317v39.98h-5.476Z" transform="translate(-312.9 -584.015)" fill="#fff"/>
          <path id="Path_95" data-name="Path 95" d="M366.636,625.239a15.631,15.631,0,0,1-6.264-1.2,14.286,14.286,0,0,1-4.761-3.321,15.071,15.071,0,0,1-3.069-4.835,15.41,15.41,0,0,1-1.072-5.728,15.681,15.681,0,0,1,1.072-5.833,15.069,15.069,0,0,1,3.069-4.835,14.157,14.157,0,0,1,4.793-3.321,15.656,15.656,0,0,1,6.232-1.2,15.4,15.4,0,0,1,6.233,1.2,14.611,14.611,0,0,1,4.761,3.321,14.806,14.806,0,0,1,3.1,4.835,15.721,15.721,0,0,1,1.072,5.833,15.45,15.45,0,0,1-1.072,5.728,15.252,15.252,0,0,1-3.069,4.835,14.16,14.16,0,0,1-4.793,3.321A15.62,15.62,0,0,1,366.636,625.239Zm-8.8-15.145a10.59,10.59,0,0,0,1.188,5.055,9.253,9.253,0,0,0,3.153,3.5,7.929,7.929,0,0,0,4.393,1.282,8.111,8.111,0,0,0,4.509-1.282,9.185,9.185,0,0,0,3.153-3.552,11.2,11.2,0,0,0,0-10.037,9.1,9.1,0,0,0-3.184-3.531,8.058,8.058,0,0,0-4.425-1.282,7.752,7.752,0,0,0-4.456,1.335,9.741,9.741,0,0,0-3.153,3.552A10.442,10.442,0,0,0,357.839,610.094Z" transform="translate(-310.933 -583.514)" fill="#fff"/>
          <path id="Path_96" data-name="Path 96" d="M402.113,623.713c-.483.221-1.146.494-1.976.82a21.568,21.568,0,0,1-2.7.82,13.814,13.814,0,0,1-3.048.336,8.82,8.82,0,0,1-3.552-.7,5.864,5.864,0,0,1-2.617-2.165,6.567,6.567,0,0,1-.988-3.763V600.643H383.29v-4.793h3.941v-9.7h6.2v9.7h6.432v4.793h-6.432v16.364a3.031,3.031,0,0,0,.988,2.239,3.276,3.276,0,0,0,2.176.725,6.677,6.677,0,0,0,2.512-.484c.809-.315,1.366-.557,1.661-.7Z" transform="translate(-309.31 -583.964)" fill="#fff"/>
          <path id="Path_97" data-name="Path 97" d="M415.925,635.989a12.767,12.767,0,0,1-3.836-.589,8.291,8.291,0,0,1-3.269-1.944l2.764-4.172a4.074,4.074,0,0,0,1.661.988,6.346,6.346,0,0,0,1.944.3,4.088,4.088,0,0,0,2.081-.557,4.29,4.29,0,0,0,1.524-1.513,4.183,4.183,0,0,0,.568-2.186V595.956h6.2V625.9a10.068,10.068,0,0,1-1.356,5.213,9.958,9.958,0,0,1-3.5,3.584A9.037,9.037,0,0,1,415.925,635.989Zm3.437-44.888V584.28h6.2V591.1Z" transform="translate(-308.008 -584.059)" fill="#fff"/>
          <path id="Path_98" data-name="Path 98" d="M431.56,613.3V595.39h6.2v16.648a10.037,10.037,0,0,0,1.44,5.9,4.854,4.854,0,0,0,4.2,1.986,8.49,8.49,0,0,0,3.416-.725,9.7,9.7,0,0,0,3.048-2.144,10.921,10.921,0,0,0,2.228-3.416V595.39h6.2v22.292a2.231,2.231,0,0,0,.4,1.482,1.722,1.722,0,0,0,1.293.525v4.961a12.728,12.728,0,0,1-1.608.2c-.431.021-.8.042-1.093.084a4.778,4.778,0,0,1-2.88-.956,3.333,3.333,0,0,1-1.293-2.354L453,618.775a13.21,13.21,0,0,1-5.1,4.761,14.763,14.763,0,0,1-6.958,1.682q-4.619,0-6.989-3.027Q431.56,619.164,431.56,613.3Z" transform="translate(-306.848 -583.493)" fill="#fff"/>
          <path id="Path_99" data-name="Path 99" d="M475.1,625.241a19.957,19.957,0,0,1-7.052-1.24,15.34,15.34,0,0,1-5.7-3.668l2.249-4.12a19.273,19.273,0,0,0,5.16,3.237,13.519,13.519,0,0,0,5.1,1.04,8.235,8.235,0,0,0,4.257-.967,3.112,3.112,0,0,0,1.608-2.848,2.459,2.459,0,0,0-.872-2.07,8.157,8.157,0,0,0-2.48-1.177c-1.072-.336-2.344-.7-3.8-1.114a38.005,38.005,0,0,1-5.276-1.986,8.138,8.138,0,0,1-3.237-2.543,6.509,6.509,0,0,1-1.072-3.857,7.94,7.94,0,0,1,1.461-4.8,9.332,9.332,0,0,1,4.088-3.1,15.688,15.688,0,0,1,6.064-1.093,17.274,17.274,0,0,1,5.949.988,13.167,13.167,0,0,1,4.824,3.069l-2.649,4.057a13.644,13.644,0,0,0-4-2.6,11.672,11.672,0,0,0-4.456-.841,11.107,11.107,0,0,0-2.564.3,4.5,4.5,0,0,0-2.112,1.114,2.957,2.957,0,0,0-.841,2.26,2.564,2.564,0,0,0,.7,1.923,5.82,5.82,0,0,0,2.06,1.2c.9.336,2.007.7,3.321,1.114a50.228,50.228,0,0,1,5.865,1.955,9.859,9.859,0,0,1,3.752,2.533,6.232,6.232,0,0,1,1.324,4.215,7.788,7.788,0,0,1-3.185,6.579C481.457,624.442,478.63,625.241,475.1,625.241Z" transform="translate(-305.277 -583.516)" fill="#fff"/>
          <path id="Path_100" data-name="Path 100" d="M507.365,623.713c-.484.221-1.146.494-1.976.82a21.754,21.754,0,0,1-2.711.82,13.815,13.815,0,0,1-3.048.336,8.82,8.82,0,0,1-3.552-.7,5.948,5.948,0,0,1-2.628-2.165,6.567,6.567,0,0,1-.988-3.763V600.643H488.51v-4.793h3.952v-9.7h6.2v9.7h6.432v4.793h-6.432v16.364a3.031,3.031,0,0,0,.988,2.239,3.266,3.266,0,0,0,2.165.725,6.676,6.676,0,0,0,2.512-.484c.809-.315,1.356-.557,1.661-.7Z" transform="translate(-303.943 -583.964)" fill="#fff"/>
          <path id="Path_101" data-name="Path 101" d="M521.74,616.128a7.8,7.8,0,0,1,1.608-4.887A10.218,10.218,0,0,1,527.8,608a17.285,17.285,0,0,1,6.516-1.146,27.47,27.47,0,0,1,4,.3,21.114,21.114,0,0,1,3.668.872v-1.85a6.168,6.168,0,0,0-1.86-4.771,7.623,7.623,0,0,0-5.36-1.724,13.049,13.049,0,0,0-4.677.841,23.583,23.583,0,0,0-4.677,2.533l-2.029-4.225a22.941,22.941,0,0,1,5.812-2.9,20.015,20.015,0,0,1,6.253-.988q5.928,0,9.3,3.09c2.26,2.06,3.384,4.992,3.384,8.776v10.867a2.2,2.2,0,0,0,.4,1.5,1.839,1.839,0,0,0,1.293.5v4.961a11.951,11.951,0,0,1-1.492.221c-.431.042-.8.074-1.093.116a4.507,4.507,0,0,1-3.048-1.02,3.728,3.728,0,0,1-1.188-2.26l-.168-1.692a12.291,12.291,0,0,1-4.877,3.836,14.675,14.675,0,0,1-6.064,1.356,11.241,11.241,0,0,1-5.244-1.2,9.062,9.062,0,0,1-3.605-3.269A8.277,8.277,0,0,1,521.74,616.128Zm18.781,1.829a13.9,13.9,0,0,0,1.04-1.492,2.656,2.656,0,0,0,.42-1.335v-3.269a17.2,17.2,0,0,0-3.321-.914,20.036,20.036,0,0,0-3.384-.3,10.294,10.294,0,0,0-5.56,1.335,4.112,4.112,0,0,0-2.112,3.657,4.452,4.452,0,0,0,.7,2.407,5.5,5.5,0,0,0,2.028,1.881,6.552,6.552,0,0,0,3.237.746,9.824,9.824,0,0,0,3.941-.8A9.929,9.929,0,0,0,540.521,617.957Z" transform="translate(-302.248 -583.515)" fill="#fff"/>
          <path id="Path_102" data-name="Path 102" d="M565.52,610.65a16.613,16.613,0,0,1,1.724-7.62,14.081,14.081,0,0,1,4.708-5.476,11.95,11.95,0,0,1,6.873-2.039,11.243,11.243,0,0,1,6.18,1.745,12.586,12.586,0,0,1,4.2,4.288V584.07h6.2v34.168a2.261,2.261,0,0,0,.4,1.492,1.764,1.764,0,0,0,1.293.536v4.961a23.987,23.987,0,0,1-2.712.336,4.279,4.279,0,0,1-2.932-1.041,3.567,3.567,0,0,1-1.293-2.449l-.052-2.144a12.588,12.588,0,0,1-10.542,5.854,13.116,13.116,0,0,1-5.612-1.2,13.8,13.8,0,0,1-4.456-3.3,15.251,15.251,0,0,1-2.932-4.8A15.842,15.842,0,0,1,565.52,610.65Zm23.679,4.057v-7.62a8.337,8.337,0,0,0-2-3.164,11.753,11.753,0,0,0-3.1-2.249,7.624,7.624,0,0,0-3.468-.862,7.5,7.5,0,0,0-3.521.83,9.1,9.1,0,0,0-2.764,2.2A9.711,9.711,0,0,0,572.572,607a11.515,11.515,0,0,0-.62,3.752,10.288,10.288,0,0,0,.673,3.721,9.793,9.793,0,0,0,1.944,3.142,8.936,8.936,0,0,0,2.932,2.113,8.659,8.659,0,0,0,3.636.746,7.87,7.87,0,0,0,2.512-.42,9.3,9.3,0,0,0,2.4-1.2,8.964,8.964,0,0,0,1.976-1.86A6.517,6.517,0,0,0,589.2,614.707Z" transform="translate(-300.015 -584.07)" fill="#fff"/>
          <path id="Path_103" data-name="Path 103" d="M614.912,625.239a15.629,15.629,0,0,1-6.264-1.2,14.883,14.883,0,0,1-7.925-8.114,15.078,15.078,0,0,1-1.1-5.739,15.556,15.556,0,0,1,1.913-7.641,14.5,14.5,0,0,1,5.381-5.518,15.287,15.287,0,0,1,7.977-2.06,14.9,14.9,0,0,1,8.03,2.091,14.69,14.69,0,0,1,5.213,5.5,15.022,15.022,0,0,1,1.86,7.315c0,.452-.021.862-.053,1.261s-.073.694-.115.925H606.147a10.257,10.257,0,0,0,1.524,4.54,8.817,8.817,0,0,0,3.216,3.006,8.52,8.52,0,0,0,4.172,1.083,9.582,9.582,0,0,0,4.761-1.24,6.413,6.413,0,0,0,3.016-3.269l5.3,1.524a11.187,11.187,0,0,1-2.932,3.857,15.038,15.038,0,0,1-4.593,2.712A16.483,16.483,0,0,1,614.912,625.239Zm-8.849-17.258h17.815a9.553,9.553,0,0,0-1.44-4.425,8.681,8.681,0,0,0-3.185-2.953,8.838,8.838,0,0,0-4.288-1.083,8.662,8.662,0,0,0-4.309,1.083,8.824,8.824,0,0,0-4.593,7.378Z" transform="translate(-298.275 -583.514)" fill="#fff"/>
          <path id="Path_104" data-name="Path 104" d="M643.979,625.241a19.958,19.958,0,0,1-7.052-1.24,15.339,15.339,0,0,1-5.7-3.668l2.26-4.12a19.274,19.274,0,0,0,5.16,3.237,13.531,13.531,0,0,0,5.108,1.04,8.236,8.236,0,0,0,4.257-.967,3.112,3.112,0,0,0,1.608-2.848,2.459,2.459,0,0,0-.872-2.07,8.158,8.158,0,0,0-2.48-1.177c-1.072-.336-2.344-.7-3.8-1.114a38.011,38.011,0,0,1-5.276-1.986,8.065,8.065,0,0,1-3.237-2.543,6.51,6.51,0,0,1-1.072-3.857,7.94,7.94,0,0,1,1.461-4.8,9.332,9.332,0,0,1,4.088-3.1,15.689,15.689,0,0,1,6.064-1.093,17.316,17.316,0,0,1,5.949.988,13.166,13.166,0,0,1,4.824,3.069l-2.648,4.057a13.644,13.644,0,0,0-4-2.6,11.672,11.672,0,0,0-4.456-.841,11.1,11.1,0,0,0-2.564.3,4.5,4.5,0,0,0-2.113,1.114,3,3,0,0,0-.841,2.26,2.564,2.564,0,0,0,.7,1.923,5.821,5.821,0,0,0,2.06,1.2c.9.336,2.007.7,3.332,1.114a50.23,50.23,0,0,1,5.865,1.955,9.86,9.86,0,0,1,3.752,2.533,6.232,6.232,0,0,1,1.324,4.215,7.788,7.788,0,0,1-3.185,6.579A13.666,13.666,0,0,1,643.979,625.241Z" transform="translate(-296.663 -583.516)" fill="#fff"/>
          <path id="Path_105" data-name="Path 105" d="M659.72,590.891V584.07h6.2v6.821Zm0,34.336V595.736h6.2v29.491Z" transform="translate(-295.21 -584.07)" fill="#fff"/>
          <path id="Path_106" data-name="Path 106" d="M684.451,625.24a12.231,12.231,0,0,1-5.465-1.209,13.061,13.061,0,0,1-4.256-3.3A14.977,14.977,0,0,1,672,615.938a16.88,16.88,0,0,1-.956-5.7,17.352,17.352,0,0,1,.988-5.917,15.083,15.083,0,0,1,2.817-4.877,13.161,13.161,0,0,1,4.309-3.3,12.687,12.687,0,0,1,5.528-1.187,11.71,11.71,0,0,1,6.232,1.64,13.735,13.735,0,0,1,4.425,4.341v-5.528H700.8V623.9a12.346,12.346,0,0,1-2.06,7.231,13.067,13.067,0,0,1-5.612,4.54,19.528,19.528,0,0,1-7.946,1.566,17.522,17.522,0,0,1-8.145-1.692,16.4,16.4,0,0,1-5.5-4.624l3.437-3.269a11.762,11.762,0,0,0,4.456,3.6,13.324,13.324,0,0,0,5.749,1.24,11.967,11.967,0,0,0,4.677-.893,7.741,7.741,0,0,0,3.437-2.764,8.16,8.16,0,0,0,1.293-4.74v-4.456a11.216,11.216,0,0,1-4.341,4.088A11.966,11.966,0,0,1,684.451,625.24Zm2.028-5.024a7.475,7.475,0,0,0,2.712-.5,10.964,10.964,0,0,0,2.4-1.293,8.362,8.362,0,0,0,1.892-1.86,7.149,7.149,0,0,0,1.125-2.2v-7.725a10.126,10.126,0,0,0-5.076-5.56,7.913,7.913,0,0,0-3.5-.82,7.532,7.532,0,0,0-3.637.872,8.786,8.786,0,0,0-2.733,2.312,10.809,10.809,0,0,0-1.745,3.237,11.514,11.514,0,0,0-.62,3.721,10.045,10.045,0,0,0,.7,3.752,10.306,10.306,0,0,0,1.944,3.153,8.758,8.758,0,0,0,2.9,2.144A8.546,8.546,0,0,0,686.479,620.216Z" transform="translate(-294.633 -583.515)" fill="#fff"/>
          <path id="Path_107" data-name="Path 107" d="M732.883,624.672h-6.148V608.339q0-4.131-1.356-5.991a4.581,4.581,0,0,0-3.941-1.871,7.759,7.759,0,0,0-3.584.914A11.133,11.133,0,0,0,714.7,603.8a9.81,9.81,0,0,0-2.06,3.489v17.373h-6.2V595.4h5.644v5.865a11.314,11.314,0,0,1,2.932-3.353,13.893,13.893,0,0,1,4.12-2.176,15.387,15.387,0,0,1,4.908-.778,9.125,9.125,0,0,1,4.393.946,6.867,6.867,0,0,1,2.712,2.6A11.6,11.6,0,0,1,732.5,602.3a25.207,25.207,0,0,1,.4,4.551v17.825Z" transform="translate(-292.827 -583.515)" fill="#fff"/>
        </g>
      </g>
    </g>
    <g id="pi-16" transform="translate(950.844 274.302)">
      <path id="Path_9" data-name="Path 9" d="M956.716,645.884H868.18L1094.873,460.31Z" transform="translate(-816.733 -460.31)" fill="red"/>
      <path id="Path_10" data-name="Path 10" d="M980.065,686.877l-80.224,37.4L1026.852,460.31Z" transform="translate(-748.712 -460.31)" fill="red"/>
      <path id="Path_11" data-name="Path 11" d="M934.489,584.047,851.841,552.31l278.14-92Z" transform="translate(-851.841 -460.31)" fill="red"/>
    </g>
  </g>
  <g id="Group_14" data-name="Group 14" transform="translate(263.118 363.465)">
    <g id="Ellipse_1" data-name="Ellipse 1" transform="translate(522.882 -351.118)" fill="#fff" stroke="#1a1a1a" stroke-width="3">
      <circle cx="34.5" cy="34.5" r="34.5" stroke="none"/>
      <circle cx="34.5" cy="34.5" r="33" fill="none"/>
    </g>
    <text id="_3" data-name="3" transform="translate(545.882 -303.118)" fill="red" font-size="38" font-family="Montserrat-ExtraBold, Montserrat" font-weight="800"><tspan x="0" y="0">3</tspan></text>
  </g>
</svg>
